<svg xmlns="http://www.w3.org/2000/svg" viewBox="0 0 64 64" id="suitcase"><path fill="#5d5e61" d="M15.4 20.6v-6.5c0-5 4.1-9.1 9.1-9.1h15c5 0 9.1 4.1 9.1 9.1v6.5h-4.5v-6.5c0-2.5-2.1-4.6-4.6-4.6h-15c-2.5 0-4.6 2.1-4.6 4.6v6.5h-4.5z"></path><path d="M14.4 20.6v-6.5C14.4 8.5 19 4 24.5 4h15c5.6 0 10.1 4.5 10.1 10.1v7.5h-6.5v-7.5c0-2-1.6-3.6-3.7-3.6h-15c-2 0-3.6 1.6-3.6 3.6v7.5h-6.5v-1h.1zm2-6.5v5.5H19v-5.5c0-3.1 2.5-5.6 5.6-5.6h15c3.1 0 5.6 2.5 5.6 5.6v5.5h2.6v-5.5c0-4.5-3.7-8.1-8.1-8.1h-15c-4.7-.1-8.3 3.6-8.3 8.1z"></path><path fill="#924f34" d="M3.2 18.7H60.8c1.2 0 2.3 1 2.3 2.3v35.9c0 1.2-1 2.2-2.3 2.2H3.2C2 59 1 58 1 56.8V20.9c0-1.2 1-2.2 2.2-2.2z"></path><path d="M3.2 17.7h57.6c1.8 0 3.2 1.4 3.2 3.2v35.9c0 1.8-1.4 3.2-3.2 3.2H3.2C1.4 60 0 58.6 0 56.8V20.9c0-.9.4-1.7.9-2.3.6-.5 1.4-.9 2.3-.9zm0 2c-.4 0-.7.1-.9.4-.2.2-.4.6-.4.9v35.9c0 .7.6 1.3 1.3 1.3h57.6c.7 0 1.3-.6 1.3-1.3v-36c0-.7-.6-1.3-1.3-1.3-19.2.1-38.4.1-57.6.1z"></path><path fill="#e6e6e6" d="M10.1 18.7h4.5V59h-4.5V18.7zm39.5 0H54V59h-4.5V18.7h.1z"></path><path d="M10.1 17.7h5.5V60H9.1V17.7h1zm3.5 2H11v38.4h2.5V19.7h.1zm36-2H55V60h-6.5V17.7h1.1zm3.5 2h-2.5v38.4h2.5V19.7z"></path></svg>